<svg xmlns="http://www.w3.org/2000/svg" version="1.1" xmlns:xlink="http://www.w3.org/1999/xlink" xmlns:svgjs="http://svgjs.dev/svgjs" width="1440" height="560" preserveAspectRatio="none" viewBox="0 0 1440 560"><g mask="url(&quot;#SvgjsMask1000&quot;)" fill="none"><rect width="1440" height="560" x="0" y="0" fill="#0e2a47"></rect><path d="M 0,16 C 57.6,65.4 172.8,264.4 288,263 C 403.2,261.6 460.8,19 576,9 C 691.2,-1 748.8,208 864,213 C 979.2,218 1036.8,26 1152,34 C 1267.2,42 1382.4,209.2 1440,253L1440 560L0 560z" fill="#184a7e"></path><path d="M 0,391 C 96,419.4 288,554.4 480,533 C 672,511.6 768,300.8 960,284 C 1152,267.2 1344,416 1440,449L1440 560L0 560z" fill="#2264ab"></path></g><defs><mask id="SvgjsMask1000"><rect width="1440" height="560" fill="#ffffff"></rect></mask></defs></svg>